<svg xmlns="http://www.w3.org/2000/svg" width="638" height="660" viewBox="0 0 638 660" fill="none"><path d="M580.6 396.7C580.6 396.7 590 511.8 582.7 630.6L509.9 629.4C509.9 629.4 529.3 440.9 509.3 374.9L580.6 396.7Z" fill="#2E1D32"></path><path d="M368 630.6L331.7 659.4H434.5L440.8 629.4L368 630.6Z" fill="#2E1D32"></path><path d="M582.7 630.6L619 659.4L506.8 658.9L509.9 629.4L582.7 630.6Z" fill="#2E1D32"></path><path d="M440.8 629.4C440.8 629.4 497.8 443.5 537.8 384.5L474.8 367C474.8 367 401.8 459 368.1 630.7C368 630.6 426.8 651.3 440.8 629.4Z" fill="#2E1D32"></path><path d="M544.7 270.2L404.6 248.7L378.6 298.5L509.3 317L544.7 270.2Z" fill="#FF4F00"></path><path d="M550.9 264.6C531.4 267.7 513 257.1 505.3 239.9C503.8 236.6 502.7 232.9 502.1 229.1C501.5 225.3 501.4 221.6 501.8 217.9C503.8 199.3 518.1 183.5 537.5 180.4C556.9 177.3 575.3 187.8 583 205C583 205 583 205 583 205.1C584.5 208.5 585.6 212.1 586.2 215.9C586.8 219.7 586.8 223.5 586.5 227.1C584.6 245.8 570.3 261.5 550.9 264.6Z" fill="#FFC3CB"></path><circle cx="585.781" cy="215.948" r="11.1999" transform="rotate(-8.99229 585.781 215.948)" fill="#FFC3CB"></circle><circle cx="502.481" cy="229.134" r="11.1999" transform="rotate(-8.99229 502.481 229.134)" fill="#FFC3CB"></circle><path d="M588.7 210.1C589.9 210 590.9 210.3 591.8 210.9C592.7 211.5 593.5 212.5 593.7 213.7C594 214.8 594 216.1 593.4 217.1C593.3 217.7 592.9 218.1 592.6 218.5C592.2 218.9 591.8 219.2 591.3 219.4V219.4H591.2C591.2 219.4 591.2 219.4 591.2 219.3C591.4 218.9 591.5 218.4 591.7 218.1C591.8 217.7 592 217.2 592 216.8C592.2 215.9 592.1 215.1 591.9 214.2C591.7 213.3 591.2 212.6 590.7 212C590.1 211.4 589.4 210.8 588.7 210.3L588.6 210.2C588.6 210.1 588.6 210.1 588.7 210.1V210.1Z" fill="#231F20"></path><path d="M498.6 224.5L498.3 227.2C498.2 228 498.3 228.6 498.3 229.1C498.4 229.7 498.3 230.3 498.5 231.1C498.5 231.3 498.5 231.5 498.6 231.6L498.7 232.2C498.8 232.6 498.9 233.1 498.9 233.7V233.8C498.9 233.8 498.9 233.9 498.8 233.9C498.8 233.9 498.8 233.9 498.7 233.9C498.4 233.5 498 233.2 497.8 232.9C497.6 232.5 497.2 232.2 497 231.7C496.6 230.9 496.3 230 496.3 229.1C496.2 227.2 497.1 225.4 498.4 224.2H498.5C498.6 224.4 498.6 224.4 498.6 224.5V224.5Z" fill="#231F20"></path><path d="M556.4 243.4C555 245.2 553 246.6 550.8 247.6C549.8 248.1 548.6 248.4 547.4 248.8C546.8 249 546.2 249 545.6 249.1C545 249.2 544.3 249.2 543.7 249.2C543.1 249.2 542.5 249.1 541.9 249C541.3 248.9 540.7 248.8 540 248.6C538.9 248.1 537.6 247.8 536.7 247L535.9 246.5C535.6 246.3 535.4 246.2 535.2 245.9L533.9 244.7C533.5 244.3 533.2 243.8 532.8 243.3C532.5 242.8 532.2 242.3 531.9 241.9V241.9V241.8H532L533.2 242.9C533.6 243.3 533.9 243.7 534.5 244L535.8 244.9C536.2 245.2 536.8 245.4 537.3 245.6C538.3 246.1 539.4 246.4 540.4 246.7L542 247C542.6 247.1 543.1 247 543.6 247.1C545.8 247.2 548 246.8 550.1 246.1C552.2 245.4 554.3 244.5 556.1 243.2H556.2C556.6 243.3 556.6 243.3 556.4 243.4V243.4Z" fill="#231F20"></path><path d="M580.5 397.4L470.2 372.9L477.1 319.1C480.8 288.1 509 265.8 540 269.6V269.6C571 273.3 593.3 301.5 589.5 332.5L580.5 397.4Z" fill="#FF4F00"></path><path d="M567 195C567 195 560.9 227.1 501.8 217.9V217.9C503.8 199.3 518.1 183.5 537.5 180.4C556.9 177.3 575.3 187.8 583 205C583 205 583 205 583 205.1C583.1 205 572.8 203.3 567 195Z" fill="#2E1D32"></path><path d="M463.1 75.5V641.4C463 651.4 454.1 659.4 443 659.4H10C4.5 659.4 0 655.4 0 650.4V75.5C0 70.5 4.5 66.5 10 66.5H453.1C458.6 66.5 463.1 70.5 463.1 75.5Z" fill="#FFD2BE"></path><path d="M324.5 91.6H154.7C152.5 91.6 150.8 91.2 150.8 90.8V39.2C150.8 38.8 152.6 38.4 154.7 38.4H328.4C330.6 38.4 332.3 38.8 332.3 39.2V90C332.3 90.9 328.8 91.6 324.5 91.6Z" fill="#FF8F5C"></path><path d="M482.4 450C482.4 450 469.8 447.6 463.1 446.3V458.9C463.1 458.9 446 465.1 442.4 466.1C438.8 467.2 433.4 470 434.1 473.9C434.9 477.6 439.7 477.3 445.7 476.2C451.8 475.1 460.2 472.6 460.2 472.6C460.2 472.6 438.2 479.5 434 480.7C429.8 481.9 426.3 484.2 427 487.8C427.7 491.4 431.9 492.5 436.9 491.5C441.9 490.6 463.8 486 463.8 486C463.8 486 449.8 490.1 446.6 491C442.7 492 437.8 494.3 441.4 498.6C444.2 502.1 457.1 501.1 466.4 499.2C489.5 494.7 502.3 482.4 502.3 482.4L482.4 450Z" fill="#FFC3CB"></path><path d="M478.3 443.2L493.6 496.5C493.6 496.5 580.3 477.8 618.3 433.2C656.3 388.5 639.4 284.1 545.8 270.5L555.8 308.5C555.8 308.5 589.8 322 588.8 371.5C587.8 422 478.3 443.2 478.3 443.2Z" fill="#FF4F00"></path><circle cx="241.6" cy="38.6" r="38.6" fill="#FF8F5C"></circle><path d="M138.9 144.7H257.5" stroke="#2E1D32" stroke-width="3"></path><path d="M138.9 180H420.5" stroke="#2E1D32" stroke-width="3"></path><circle cx="73.4" cy="163.5" r="32.6" fill="#0BA87C"></circle><path d="M59.7001 162.1L70.3001 171.6L87.0001 152.3" stroke="white" stroke-width="4"></path><path d="M138.9 241.7H257.5" stroke="#2E1D32" stroke-width="3"></path><path d="M138.9 277H420.5" stroke="#2E1D32" stroke-width="3"></path><circle cx="73.4" cy="260.5" r="32.6" fill="#0BA87C"></circle><path d="M59.7001 259.1L70.3001 268.6L87.0001 249.3" stroke="white" stroke-width="4"></path><path d="M138.9 557.7H257.5" stroke="#2E1D32" stroke-width="3"></path><path d="M138.9 593H420.5" stroke="#2E1D32" stroke-width="3"></path><circle cx="73.4" cy="576.5" r="32.6" fill="#0BA87C"></circle><path d="M59.7001 575.1L70.3001 584.6L87.0001 565.3" stroke="white" stroke-width="4"></path><rect x="40.4" y="335.6" width="381" height="168" fill="#FFF8F5"></rect><rect x="74.2" y="427.1" width="37" height="49.3" fill="#D2D4C5"></rect><rect x="129.8" y="358.8" width="37" height="117.6" fill="#D2D4C5"></rect><rect x="352.1" y="413" width="37" height="63.4" fill="#D2D4C5"></rect><rect x="185.3" y="397.8" width="37" height="78.7" fill="#D2D4C5"></rect><rect x="296.5" y="380.1" width="37" height="96.3" fill="#D2D4C5"></rect><rect x="240.9" y="430.1" width="37" height="46.3" fill="#D2D4C5"></rect><path d="M512.5 268C512.5 268 530.2 302 572.5 280.3" stroke="white" stroke-width="2" stroke-linecap="round" stroke-linejoin="round"></path><path d="M541.5 272.2L521.2 377.8" stroke="white" stroke-width="2" stroke-linecap="round" stroke-linejoin="round"></path><rect x="509.7" y="67" width="56.2" height="12.7" fill="#FC9A74"></rect><rect x="537.8" y="96" width="56.2" height="12.7" fill="#FC9A74"></rect></svg>